# 3ds Max Wavefront OBJ Exporter v0.99 - (c)2007 guruware
# File Created: 20.03.2022 09:54:38

mtllib ???.mtl

#
# object Box001
#

v  -55.0000 0.0001 -9.5001
v  -35.0000 0.0001 -9.5001
v  -35.0000 0.0001 10.4999
v  -55.0000 0.0001 10.4999
v  -35.0000 31.0919 10.4999
v  -54.9999 31.0919 10.4999
v  -54.9999 40.9003 10.4999
v  -55.0000 40.9003 10.4999
v  -55.0000 40.9003 -9.5001
v  -35.0000 40.9003 -9.5001
v  -35.0000 40.9003 -9.5000
v  -35.0000 31.0919 -9.5000
v  -54.9999 40.9003 -9.5000
v  65.0000 0.0001 10.4999
v  45.0000 0.0001 10.4999
v  45.0000 0.0001 -9.5001
v  65.0000 0.0001 -9.5001
v  45.0000 40.9003 -9.5001
v  65.0000 40.9003 -9.5001
v  65.0000 40.9003 -9.5000
v  65.0000 31.0919 -9.5000
v  65.0000 31.0919 10.4999
v  45.0000 31.0919 10.4999
v  45.0000 31.0919 -9.5000
v  45.0000 40.9003 -9.5000
v  15.9509 31.6490 10.5064
v  -4.0491 31.6490 10.5064
v  -4.0491 31.6490 10.5000
v  15.9509 31.6490 10.5000
v  15.9509 41.0919 10.5000
v  15.9509 41.0919 -9.4936
v  15.9509 74.8266 -9.4936
v  15.9509 74.8266 10.5064
v  -4.0491 74.8266 10.5064
v  -4.0491 74.8266 -9.4936
v  -4.0491 41.0919 -9.4936
v  -4.0491 41.0919 10.5000
v  65.0001 31.0919 -9.5000
v  65.0001 31.0919 10.5000
v  -54.9999 31.0919 10.5000
v  65.0001 41.0919 10.5000
v  -54.9999 41.0919 10.5000
v  -54.9999 41.0919 -9.5000
v  65.0001 41.0919 -9.5000
# 44 vertices

vn -0.5774 -0.5774 -0.5774
vn 0.5774 -0.5773 -0.5773
vn 0.5774 -0.5774 0.5774
vn -0.5774 -0.5774 0.5774
vn 0.0576 -0.5686 0.8206
vn -0.3015 -0.3015 0.9045
vn -0.9045 0.3015 0.3015
vn -0.5774 0.5774 0.5774
vn -0.5774 0.5774 -0.5774
vn 0.5774 0.5774 -0.5774
vn 0.3015 0.3015 -0.9045
vn 0.9045 -0.3015 -0.3015
vn -0.3015 0.9045 -0.3015
vn -0.5774 -0.5773 -0.5773
vn 0.3015 -0.9045 0.3015
vn -0.2880 -0.8345 0.4698
vn -0.9045 -0.3015 -0.3015
vn -0.3015 0.3015 -0.9045
vn 0.3015 -0.3015 0.9045
vn 0.9045 0.3015 0.3015
vn 0.3015 0.9045 -0.3015
vn 0.5773 0.5774 0.5774
vn -0.5773 0.5774 0.5774
vn 0.5774 -0.5774 -0.5774
vn 0.5774 -0.5773 0.5774
vn -0.5774 -0.5774 0.5773
vn 0.5774 0.5774 0.5774
vn -0.5773 0.5774 -0.5773
vn 0.5773 0.5774 -0.5773
# 29 vertex normals

vt 1.0000 1.0000 0.0000
vt 0.0000 1.0000 0.0000
vt 0.0000 0.0000 0.0000
vt 1.0000 0.0000 0.0000
vt 1.0000 0.7602 0.0000
vt 0.0000 0.7602 0.0000
vt 1.0000 0.0003 0.0000
vt 0.0000 0.0003 0.0000
vt 0.0003 0.2187 0.0000
vt 1.0000 0.2187 0.0000
vt 0.0003 0.0000 0.0000
vt 0.0000 0.2187 0.0000
vt 0.9997 0.2187 0.0000
vt 0.9997 0.0000 0.0000
vt 0.8333 0.0000 0.0000
vt 0.8333 1.0000 0.0000
vt 0.1667 1.0000 0.0000
vt 0.1667 0.0000 0.0000
vt 0.5913 1.0000 0.0000
vt 0.5913 0.0557 0.0000
vt 0.4246 0.0557 0.0000
vt 0.4246 1.0000 0.0000
vt 0.0000 0.9808 0.0000
vt 1.0000 0.9808 0.0000
vt 0.1667 0.9808 0.0000
vt 0.8333 0.9808 0.0000
vt 0.5913 0.9997 0.0000
vt 0.5913 0.0000 0.0000
vt 0.4246 0.9997 0.0000
vt 0.4246 0.0000 0.0000
# 30 texture coords

o Box001
g Box001
usemtl wire_027177027
s 2
f 1/1/1 2/2/2 3/3/3 4/4/4 
s 8
f 4/3/4 3/4/3 5/5/5 6/6/6 
f 4/3/4 6/6/6 7/2/7 8/2/8 
s 64
f 4/4/4 8/1/8 9/2/9 1/3/1 
s 32
f 1/4/1 9/1/9 10/2/10 2/3/2 
s 16
f 2/4/2 10/1/10 11/1/11 12/5/12 
f 3/3/3 2/4/2 12/5/12 5/6/5 
s 4
f 13/2/13 11/1/11 10/1/10 9/2/9 
f 7/3/7 13/2/13 9/2/9 8/3/8 
s 2
f 14/4/3 15/3/4 16/2/14 17/1/2 
s 32
f 16/3/14 18/2/9 19/1/10 17/4/2 
s 64
f 17/3/2 19/2/10 20/2/11 21/6/12 
f 14/4/3 17/3/2 21/6/12 22/5/15 
s 8
f 15/4/4 14/3/3 22/6/15 23/5/16 
s 16
f 16/4/14 15/3/4 23/6/16 24/5/17 
f 16/4/14 24/5/17 25/1/18 18/1/9 
s 4
f 19/2/10 18/1/9 25/1/18 20/2/11 
s 1
f 26/3/3 27/4/4 28/7/6 29/8/19 
s 512
f 30/9/20 31/10/21 32/1/10 33/2/22 
f 29/11/19 30/9/20 33/2/22 26/3/3 
s 256
f 26/4/3 33/1/22 34/2/23 27/3/4 
s 2048
f 34/1/23 35/2/9 36/12/13 37/13/7 
f 27/4/4 34/1/23 37/13/7 28/14/6 
s 1024
f 35/1/9 32/2/10 31/12/21 36/10/13 
s 128
f 33/4/22 32/1/10 35/2/9 34/3/23 
s 4096
f 5/15/5 12/16/12 24/17/17 23/18/16 
f 22/3/15 21/2/12 38/2/24 39/3/25 
f 23/18/16 22/3/15 39/3/25 5/15/5 
f 6/4/6 5/15/5 39/3/25 40/4/26 
s 16384
f 39/4/25 41/1/27 30/19/20 29/20/19 
f 40/3/26 39/4/25 29/20/19 28/21/6 
f 40/3/26 28/21/6 37/22/7 42/2/23 
s 131072
f 42/1/23 43/2/28 13/23/13 7/24/7 
f 40/4/26 42/1/23 7/24/7 6/4/6 
s 65536
f 25/25/18 24/18/17 12/15/12 11/26/11 
f 11/26/11 13/24/13 43/1/28 44/2/29 
f 25/25/18 11/26/11 44/2/29 20/23/11 
f 21/3/12 20/23/11 44/2/29 38/3/24 
s 32768
f 38/4/24 44/1/29 41/2/27 39/3/25 
s 8192
f 31/27/21 30/28/20 41/4/27 44/1/29 
f 36/29/13 31/27/21 44/1/29 43/2/28 
f 37/30/7 36/29/13 43/2/28 42/3/23 
# 42 polygons

